<svg xmlns="http://www.w3.org/2000/svg" xmlns:xlink="http://www.w3.org/1999/xlink" width="500" zoomAndPan="magnify" viewBox="0 0 375 374.999991" height="500" preserveAspectRatio="xMidYMid meet" version="1.0"><defs><clipPath id="7fca6fff67"><path d="M 10.730469 45.273438 L 363.980469 45.273438 L 363.980469 329.523438 L 10.730469 329.523438 Z M 10.730469 45.273438 " clip-rule="nonzero"/></clipPath></defs><g clip-path="url(#7fca6fff67)"><path fill="#1649ff" d="M 38.941406 187.511719 C 38.941406 164.722656 57.480469 146.089844 80.277344 146.089844 L 358 146.089844 C 356.558594 141.363281 354.859375 136.734375 352.910156 132.128906 C 350.875 127.316406 348.585938 122.585938 346.066406 118.195312 C 339.699219 106.835938 331.785156 96.3125 322.4375 86.960938 C 309.378906 73.902344 294.167969 63.632812 277.226562 56.464844 C 259.675781 49.046875 241.050781 45.273438 221.847656 45.273438 C 202.648438 45.273438 184.023438 49.03125 166.480469 56.453125 C 149.539062 63.617188 134.328125 73.902344 121.269531 86.953125 C 111.921875 96.300781 104.007812 106.808594 97.640625 118.179688 L 80.277344 118.179688 C 70.917969 118.179688 61.835938 119.992188 53.265625 123.609375 C 45.003906 127.105469 37.582031 132.089844 31.214844 138.457031 C 24.851562 144.824219 19.851562 152.238281 16.355469 160.5 C 12.734375 169.074219 10.894531 178.160156 10.894531 187.519531 C 10.894531 196.882812 12.734375 205.964844 16.355469 214.527344 C 19.851562 222.789062 24.851562 230.210938 31.214844 236.574219 C 37.582031 242.941406 45.003906 247.914062 53.265625 251.410156 C 61.828125 255.027344 70.917969 256.839844 80.277344 256.839844 L 97.632812 256.839844 C 104 268.210938 111.914062 278.71875 121.261719 288.066406 C 134.320312 301.125 149.53125 311.394531 166.472656 318.5625 C 184.015625 325.980469 202.648438 329.753906 221.84375 329.753906 C 241.042969 329.753906 259.667969 325.996094 277.214844 318.574219 C 294.152344 311.410156 309.363281 301.117188 322.425781 288.058594 C 331.769531 278.714844 339.683594 268.175781 346.050781 256.816406 C 348.578125 252.425781 350.863281 247.703125 352.898438 242.890625 C 354.84375 238.285156 356.546875 233.660156 357.984375 228.9375 L 80.277344 228.9375 C 57.488281 228.9375 38.941406 210.304688 38.941406 187.511719 Z M 221.847656 73.371094 C 258.746094 73.371094 291.601562 90.929688 312.496094 118.1875 L 131.203125 118.1875 C 152.097656 90.929688 184.960938 73.371094 221.847656 73.371094 Z M 312.496094 256.84375 C 291.601562 284.316406 258.746094 301.664062 221.847656 301.664062 C 184.953125 301.664062 152.097656 284.324219 131.203125 256.84375 Z M 364.097656 187.621094 C 364.097656 192.332031 363.871094 196.960938 363.414062 201.675781 L 79.128906 201.675781 C 71.363281 201.675781 65.0625 195.390625 65.0625 187.621094 C 65.0625 179.851562 71.363281 173.566406 79.128906 173.566406 L 363.421875 173.566406 C 363.871094 178.074219 364.097656 182.914062 364.097656 187.621094 Z M 364.097656 187.621094 " fill-opacity="1" fill-rule="nonzero"/></g></svg>